<?xml version="1.0" encoding="utf-8"?>
<!-- Generator: Adobe Illustrator 16.0.0, SVG Export Plug-In . SVG Version: 6.00 Build 0)  -->
<!DOCTYPE svg PUBLIC "-//W3C//DTD SVG 1.1//EN" "http://www.w3.org/Graphics/SVG/1.1/DTD/svg11.dtd">
<svg version="1.1" id="Ebene_1" xmlns="http://www.w3.org/2000/svg" xmlns:xlink="http://www.w3.org/1999/xlink" x="0px" y="0px"
	 width="1000px" height="581.38px" viewBox="0 136.637 1000 581.38" enable-background="new 0 136.637 1000 581.38"
	 xml:space="preserve">
<path fill="#FFFFFF" d="M123.43,267.578C48.61,321.937,0,382.628,0,427.328s48.609,105.38,123.43,159.74V267.578z"/>
<path fill="#FFFFFF" d="M876.56,267.578v319.49c74.83-54.37,123.44-115.04,123.44-159.74S951.39,321.937,876.56,267.578z"/>
<path fill="#FFFFFF" d="M500,136.637c-105.641,0-214.23,35.71-303.11,84.521v412.34c88.88,48.81,197.47,84.52,303.11,84.52
	c105.64,0,214.229-35.71,303.119-84.52v-412.34C714.23,172.347,605.64,136.637,500,136.637z M666.32,479.968h-30.93v-37.18h-48.33
	v37.18h-30.93v-37.18H507.8v37.18h-30.931v-37.18h-48.33v37.18H397.6v-37.18h-48.33v37.18h-30.93v-105.28h30.93v37.17h48.33v-37.17
	h30.93v37.17h48.33v-37.17h30.93v37.17h48.33v-37.17h30.931v37.17h48.33v-37.17h30.93v105.28H666.32z"/>
</svg>
